<svg id="Layer_1" data-name="Layer 1" xmlns="http://www.w3.org/2000/svg" viewBox="0 0 2500 2500"><defs><style>.cls-1{fill:#fff;fill-opacity:0;}.cls-1,.cls-2,.cls-3,.cls-4{fill-rule:evenodd;}.cls-2{fill:#87caf3;}.cls-4{fill:#009fe1;}</style></defs><title>daikin</title><path class="cls-1" d="M505.15,505.15h1489.7v1489.7H505.15Z"/><path class="cls-2" d="M1866.14,770.68H583.62V1973Z"/><path class="cls-3" d="M1233.58,770.68h-650V1380Z"/><path class="cls-4" d="M1199.87,725.49l49.87-198.43H1162l-49.86,198.43Zm397.86,0,49.85-198.43h-87.75L1510,725.49Zm189.91-198.43h-97.16l-49.87,198.43h61.29l28.78-115.26L1770,725.49h96.56l49.88-198.43H1854.6l-28.75,114.6-38.21-114.6Zm-264.9,0h-91.35l-73.25,63.72,16-63.72h-84.48l-49.86,198.43h84.47l16.39-65.2,43.88,65.2h102.49L1412.4,623l110.34-95.94ZM855.08,611.21c0,86.11-78.26,114.28-110.35,114.28H583.62l49.86-198.43H748.66c79.24,0,106.42,40.92,106.42,84.15Zm-144.73,70.4c40.6,0,58.61-36.68,58.61-71.38s-30.46-35-40.6-35-24,.71-24,.71L678.05,680.65S696.93,681.61,710.35,681.61ZM951,527.06,836.72,725.49h59.81l17.39-31h80.52l5.47,31h84.72l-34.85-198.43ZM942.59,643.4l32.6-58.11,10.24,58.11Z"/></svg>